<svg xmlns="http://www.w3.org/2000/svg" viewBox="0 0 1200 400" width="100%" height="100%">
  <defs>
    <!-- Background Gradient -->
    <linearGradient id="bgGrad" x1="0" y1="0" x2="1" y2="1">
      <stop offset="0%" stop-color="#0f172a" />
      <stop offset="100%" stop-color="#1e293b" />
    </linearGradient>

    <!-- Logo Curve Fill Gradients -->
    <linearGradient id="blueFill" x1="0" y1="0" x2="0" y2="1">
      <stop offset="0%" stop-color="#3B82F6" stop-opacity="0.5" />
      <stop offset="100%" stop-color="#3B82F6" stop-opacity="0.0" />
    </linearGradient>
    <linearGradient id="purpleFill" x1="0" y1="0" x2="0" y2="1">
      <stop offset="0%" stop-color="#A855F7" stop-opacity="0.5" />
      <stop offset="100%" stop-color="#A855F7" stop-opacity="0.0" />
    </linearGradient>
    <linearGradient id="orangeFill" x1="0" y1="0" x2="0" y2="1">
      <stop offset="0%" stop-color="#F97316" stop-opacity="0.5" />
      <stop offset="100%" stop-color="#F97316" stop-opacity="0.0" />
    </linearGradient>

    <!-- Subtle Drop Shadow for Curves -->
    <filter id="glow" x="-20%" y="-20%" width="140%" height="140%">
      <feGaussianBlur stdDeviation="8" result="blur" />
      <feComposite in="SourceGraphic" in2="blur" operator="over" />
    </filter>

    <!-- Spiral Gradient (For IDE Phase Portrait) -->
    <linearGradient id="spiral" x1="0" y1="1" x2="0" y2="0">
      <stop offset="0%" stop-color="#3B82F6" />
      <stop offset="33%" stop-color="#A855F7" />
      <stop offset="100%" stop-color="#EF4444" />
    </linearGradient>

    <!-- Window Clip Path for the IDE -->
    <clipPath id="windowClip">
      <rect width="1200" height="700" rx="8" />
    </clipPath>

    <!-- ============================================== -->
    <!-- Effects for the "Difuminied" (Faded) IDE       -->
    <!-- ============================================== -->
    <!-- Blur Filter -->
    <filter id="blurIDE" x="-10%" y="-10%" width="120%" height="120%">
      <feGaussianBlur stdDeviation="2.5" />
    </filter>

    <!-- Linear Gradient Mask to fade from left to right -->
    <linearGradient id="fadeGrad" x1="0" y1="0" x2="1" y2="0">
      <stop offset="35%" stop-color="#000000" /> <!-- Fully hidden under the logo -->
      <stop offset="70%" stop-color="#999999" /> <!-- Smooth transition -->
      <stop offset="100%" stop-color="#ffffff" /> <!-- Fully visible on the far right -->
    </linearGradient>
    
    <mask id="ideMask" maskUnits="userSpaceOnUse" x="0" y="0" width="1200" height="400">
      <rect x="0" y="0" width="1200" height="400" fill="url(#fadeGrad)" />
    </mask>
  </defs>

  <!-- Base Banner Background -->
  <rect width="1200" height="400" fill="url(#bgGrad)" rx="16" />

  <!-- ============================================== -->
  <!-- RIGHT SIDE: The Difuminied IDE Background      -->
  <!-- ============================================== -->
  <g mask="url(#ideMask)" filter="url(#blurIDE)" opacity="0.8">
    <g transform="translate(380, -20) scale(0.7)">
      <g clip-path="url(#windowClip)">
        <!-- Base Background -->
        <rect width="1200" height="700" fill="#1e1e1e" />

        <!-- Window Controls & Header -->
        <rect x="0" y="0" width="1200" height="50" fill="#181818" />
        
        <!-- Window controls (Right) -->
        <rect x="1150" y="0" width="50" height="25" fill="#181818" />
        <line x1="1100" y1="12" x2="1110" y2="12" stroke="#cccccc" stroke-width="1" />
        <rect x="1130" y="9" width="8" height="8" fill="none" stroke="#cccccc" stroke-width="1" />
        <line x1="1165" y1="8" x2="1175" y2="18" stroke="#cccccc" stroke-width="1" />
        <line x1="1165" y1="18" x2="1175" y2="8" stroke="#cccccc" stroke-width="1" />

        <!-- Logo & Title -->
        <path d="M 15 20 L 22 10 L 29 20 Z" fill="#A855F7" />
        <path d="M 10 20 L 18 10 L 22 10 L 15 20 Z" fill="#3B82F6" />
        <text x="35" y="18" fill="#cccccc" font-family="'Segoe UI', Roboto, sans-serif" font-size="12" font-weight="bold">CLIPSiffy Studio</text>
        
        <!-- Menu -->
        <text x="10" y="40" fill="#cccccc" font-family="'Segoe UI', Roboto, sans-serif" font-size="13">File   Edit   View   Run   Debug   Settings   Help</text>

        <!-- Activity Bar (Far Left) -->
        <rect x="0" y="50" width="50" height="625" fill="#181818" />
        
        <!-- Active Indicator -->
        <rect x="0" y="60" width="2" height="30" fill="#007acc" />

        <!-- Icons -->
        <g fill="none" stroke="#cccccc" stroke-width="2" stroke-linecap="round" stroke-linejoin="round">
          <!-- Documents -->
          <path d="M 15 65 L 25 65 L 32 72 L 32 85 L 15 85 Z" stroke="#ffffff" />
          <path d="M 25 65 L 25 72 L 32 72" stroke="#ffffff" />
          <!-- Extensions / Squares -->
          <rect x="15" y="115" width="6" height="6" />
          <rect x="25" y="115" width="6" height="6" />
          <rect x="15" y="125" width="6" height="6" />
          <rect x="25" y="125" width="6" height="6" />
          <!-- Globe -->
          <circle cx="23" cy="165" r="9" />
          <ellipse cx="23" cy="165" rx="4" ry="9" />
          <line x1="14" y1="165" x2="32" y2="165" />
          <!-- Chart -->
          <rect x="15" y="205" width="16" height="16" />
          <line x1="19" y1="221" x2="19" y2="215" />
          <line x1="23" y1="221" x2="23" y2="210" />
          <line x1="27" y1="221" x2="27" y2="212" />
          <!-- Clock -->
          <circle cx="23" cy="255" r="9" />
          <path d="M 23 250 L 23 255 L 27 259" />
          <!-- Run Arrow -->
          <path d="M 17 295 L 30 302 L 17 309 Z" />
          <!-- Menu Lines (Bottom) -->
          <line x1="15" y1="625" x2="31" y2="625" />
          <line x1="15" y1="631" x2="31" y2="631" />
          <line x1="15" y1="637" x2="31" y2="637" />
        </g>

        <!-- Explorer Sidebar -->
        <rect x="50" y="50" width="220" height="625" fill="#252526" />
        
        <text x="60" y="72" fill="#cccccc" font-family="'Segoe UI', Roboto, sans-serif" font-size="11">EXPLORER</text>
        <circle cx="235" cy="69" r="1.5" fill="#cccccc" />
        <circle cx="245" cy="69" r="1.5" fill="#cccccc" />
        <text x="253" y="73" fill="#cccccc" font-family="'Segoe UI', Roboto, sans-serif" font-size="14">×</text>

        <!-- Open Folder Button -->
        <rect x="60" y="85" width="200" height="25" fill="#007acc" rx="2" />
        <text x="160" y="102" fill="#ffffff" font-family="'Segoe UI', Roboto, sans-serif" font-size="13" text-anchor="middle">Open Folder...</text>
        
        <!-- File Tree Header -->
        <rect x="50" y="120" width="220" height="25" fill="#2d2d30" />
        <text x="60" y="137" fill="#cccccc" font-family="'Segoe UI', Roboto, sans-serif" font-size="11">Name</text>

        <!-- File Tree Items -->
        <g font-family="'Segoe UI', Roboto, sans-serif" font-size="12" fill="#cccccc">
          <!-- clips_hello_world.clp -->
          <path d="M 75 152 L 82 152 L 85 155 L 85 162 L 75 162 Z" fill="#888" />
          <text x="92" y="160">clips_hello_world.clp</text>
          <!-- wenv_car.clp -->
          <path d="M 75 172 L 82 172 L 85 175 L 85 182 L 75 182 Z" fill="#888" />
          <text x="92" y="180">wenv_car.clp</text>
          
          <!-- wenv_drone.clp (Active) -->
          <rect x="50" y="186" width="220" height="20" fill="#37373D" />
          <path d="M 75 192 L 82 192 L 85 195 L 85 202 L 75 202 Z" fill="#fff" />
          <text x="92" y="200" fill="#ffffff">wenv_drone.clp</text>
          
          <!-- wenv_pendulum.clp -->
          <path d="M 75 212 L 82 212 L 85 215 L 85 222 L 75 222 Z" fill="#888" />
          <text x="92" y="220">wenv_pendulum.clp</text>
          <!-- wenv_rabbits.clp -->
          <path d="M 75 232 L 82 232 L 85 235 L 85 242 L 75 242 Z" fill="#888" />
          <text x="92" y="240">wenv_rabbits.clp</text>
          <!-- wenv_temp.clp -->
          <path d="M 75 252 L 82 252 L 85 255 L 85 262 L 75 262 Z" fill="#888" />
          <text x="92" y="260">wenv_temp.clp</text>
          <!-- woenv_ex1.clp -->
          <path d="M 75 272 L 82 272 L 85 275 L 85 282 L 75 282 Z" fill="#888" />
          <text x="92" y="280">woenv_ex1.clp</text>
          <!-- woenv_ex2.clp -->
          <path d="M 75 292 L 82 292 L 85 295 L 85 302 L 75 302 Z" fill="#888" />
          <text x="92" y="300">woenv_ex2.clp</text>
          <!-- woenv_ex3.clp -->
          <path d="M 75 312 L 82 312 L 85 315 L 85 322 L 75 322 Z" fill="#888" />
          <text x="92" y="320">woenv_ex3.clp</text>
          <!-- woenv_ex4.clp -->
          <path d="M 75 332 L 82 332 L 85 335 L 85 342 L 75 342 Z" fill="#888" />
          <text x="92" y="340">woenv_ex4.clp</text>
          <!-- woenv_ex5.clp -->
          <path d="M 75 352 L 82 352 L 85 355 L 85 362 L 75 362 Z" fill="#888" />
          <text x="92" y="360">woenv_ex5.clp</text>
        </g>

        <!-- Code Editor (Middle Pane) -->
        <rect x="270" y="50" width="440" height="425" fill="#1e1e1e" />
        
        <!-- Header -->
        <rect x="270" y="50" width="440" height="25" fill="#252526" />
        <text x="280" y="67" fill="#cccccc" font-family="'Segoe UI', Roboto, sans-serif" font-size="11">CODE VIEW</text>
        <circle cx="675" cy="63" r="1.5" fill="#cccccc" />
        <circle cx="685" cy="63" r="1.5" fill="#cccccc" />
        <text x="693" y="67" fill="#cccccc" font-family="'Segoe UI', Roboto, sans-serif" font-size="14">×</text>

        <!-- Editor Tab -->
        <rect x="270" y="75" width="140" height="30" fill="#1e1e1e" />
        <rect x="270" y="75" width="140" height="2" fill="#007acc" />
        <text x="285" y="95" fill="#ffffff" font-family="'Segoe UI', Roboto, sans-serif" font-size="12">wenv_drone.clp</text>
        <text x="390" y="95" fill="#cccccc" font-family="'Segoe UI', Roboto, sans-serif" font-size="14">×</text>

        <!-- Code Area -->
        <g font-family="'Consolas', 'Courier New', monospace" font-size="13">
          <!-- Line Numbers -->
          <g fill="#858585" text-anchor="end">
            <text x="300" y="130">1</text>
            <text x="300" y="150">2</text>
            <text x="300" y="170">3</text>
            <text x="300" y="190">4</text>
            <text x="300" y="210">5</text>
            <text x="300" y="230">6</text>
            <text x="300" y="250">7</text>
            <text x="300" y="270">8</text>
            <text x="300" y="290">9</text>
            <text x="300" y="310">10</text>
            <text x="300" y="330">11</text>
            <text x="300" y="350">12</text>
            <text x="300" y="370">13</text>
            <text x="300" y="390">14</text>
            <text x="300" y="410">15</text>
            <text x="300" y="430">16</text>
          </g>
          
          <!-- Fold icons -->
          <text x="308" y="250" fill="#cccccc">⊟</text>
          <text x="308" y="350" fill="#cccccc">⊟</text>
          
          <!-- Syntax Highlighted Code -->
          <!-- Line 1 -->
          <text x="320" y="130" fill="#6A9955">;;;</text>
          <text x="320" y="145" fill="#6A9955">;;; ==========================================================</text>
          <!-- Line 2 -->
          <text x="320" y="165" fill="#6A9955">;;; 1. ENVIRONMENT PHYSICAL FUNCTIONS</text>
          <text x="320" y="180" fill="#6A9955">;;;</text>
          <!-- Line 3 -->
          <text x="320" y="195" fill="#6A9955">;;; ==========================================================</text>
          <!-- Line 4 -->
          <text x="320" y="215" fill="#6A9955">;;; We define the math of the simulation in the COMMON module</text>
          <!-- Line 5 -->
          <text x="320" y="230" fill="#6A9955">;;; so that the environment updater can find them.</text>
          <!-- Line 7 -->
          <text x="320" y="250"><tspan fill="#D4D4D4">(</tspan><tspan fill="#569CD6">deffunction</tspan> <tspan fill="#DCDCAA">COMMON::calc-accel</tspan> <tspan fill="#D4D4D4">(</tspan><tspan fill="#9CDCFE">?thrust</tspan><tspan fill="#D4D4D4">)</tspan></text>
          <!-- Line 8 -->
          <text x="340" y="270" fill="#6A9955">;;; The net acceleration is the motor thrust minus gravity</text>
          <!-- Line 9 -->
          <text x="340" y="290"><tspan fill="#D4D4D4">(</tspan><tspan fill="#C586C0">return</tspan> <tspan fill="#D4D4D4">(</tspan><tspan fill="#D4D4D4">-</tspan> <tspan fill="#9CDCFE">?thrust</tspan> <tspan fill="#B5CEA8">9.81</tspan><tspan fill="#D4D4D4">))</tspan></text>
          <!-- Line 10 -->
          <text x="320" y="310" fill="#D4D4D4">)</text>
          
          <!-- Line 12 -->
          <text x="320" y="350"><tspan fill="#D4D4D4">(</tspan><tspan fill="#569CD6">deffunction</tspan> <tspan fill="#DCDCAA">COMMON::calc-vel</tspan> <tspan fill="#D4D4D4">(</tspan><tspan fill="#9CDCFE">?old-vel</tspan> <tspan fill="#9CDCFE">?accel</tspan> <tspan fill="#9CDCFE">?dt</tspan><tspan fill="#D4D4D4">)</tspan></text>
          <!-- Line 13 -->
          <text x="340" y="370" fill="#6A9955">;;; We calculate the new velocity adding aerodynamic drag</text>
          <!-- Line 14 -->
          <text x="340" y="390"><tspan fill="#D4D4D4">(</tspan><tspan fill="#569CD6">bind</tspan> <tspan fill="#9CDCFE">?drag</tspan> <tspan fill="#D4D4D4">(</tspan><tspan fill="#D4D4D4">*</tspan> <tspan fill="#B5CEA8">-0.2</tspan> <tspan fill="#9CDCFE">?old-vel</tspan><tspan fill="#D4D4D4">))</tspan></text>
          <!-- Line 15 -->
          <text x="340" y="410"><tspan fill="#D4D4D4">(</tspan><tspan fill="#C586C0">return</tspan> <tspan fill="#D4D4D4">(</tspan><tspan fill="#D4D4D4">+</tspan> <tspan fill="#9CDCFE">?old-vel</tspan> <tspan fill="#D4D4D4">(</tspan><tspan fill="#D4D4D4">*</tspan> <tspan fill="#D4D4D4">(</tspan><tspan fill="#D4D4D4">+</tspan> <tspan fill="#9CDCFE">?accel</tspan> <tspan fill="#9CDCFE">?drag</tspan><tspan fill="#D4D4D4">)</tspan> <tspan fill="#9CDCFE">?dt</tspan><tspan fill="#D4D4D4">)))</tspan></text>
          <!-- Line 16 -->
          <text x="320" y="430" fill="#D4D4D4">)</text>
        </g>

        <!-- Simulation Dashboard (Right Pane) -->
        <rect x="710" y="50" width="490" height="425" fill="#1e1e1e" />
        
        <!-- Tabs Header -->
        <rect x="710" y="50" width="490" height="25" fill="#252526" />
        <text x="720" y="67" fill="#999999" font-family="'Segoe UI', Roboto, sans-serif" font-size="11">SIMULATION DASHBOARD</text>
        <text x="860" y="67" fill="#999999" font-family="'Segoe UI', Roboto, sans-serif" font-size="11">BLOCK VIEW</text>
        <rect x="940" y="50" width="180" height="25" fill="#1e1e1e" />
        <rect x="940" y="50" width="180" height="2" fill="#007acc" />
        <text x="950" y="67" fill="#ffffff" font-family="'Segoe UI', Roboto, sans-serif" font-size="11">STATE SPACE (PHASE PORTRAIT)</text>
        
        <!-- Subheader Title -->
        <rect x="710" y="75" width="490" height="30" fill="#1e1e1e" />
        <text x="720" y="95" fill="#cccccc" font-family="'Segoe UI', Roboto, sans-serif" font-size="11">STATE SPACE (PHASE PORTRAIT)</text>
        <circle cx="1165" cy="91" r="1.5" fill="#cccccc" />
        <circle cx="1175" cy="91" r="1.5" fill="#cccccc" />
        <text x="1183" y="95" fill="#cccccc" font-family="'Segoe UI', Roboto, sans-serif" font-size="14">×</text>

        <!-- Toolbar Icons -->
        <g fill="none" stroke="#cccccc" stroke-width="1.8" stroke-linecap="round" stroke-linejoin="round">
          <path d="M 725 125 L 735 115 L 745 125 M 728 122 L 728 132 L 742 132 L 742 122" />
          <path d="M 770 124 L 755 124 M 760 119 L 755 124 L 760 129" />
          <path d="M 785 124 L 800 124 M 795 119 L 800 124 L 795 129" />
          <circle cx="825" cy="124" r="5" />
          <path d="M 825 115 L 825 118 M 825 130 L 825 133 M 816 124 L 819 124 M 831 124 L 834 124" />
          <circle cx="855" cy="122" r="5" />
          <path d="M 859 126 L 864 131" />
          <path d="M 880 118 L 892 118 M 880 124 L 892 124 M 880 130 L 892 130" />
          <circle cx="884" cy="118" r="1.5" fill="#cccccc" />
          <circle cx="889" cy="124" r="1.5" fill="#cccccc" />
          <circle cx="884" cy="130" r="1.5" fill="#cccccc" />
          <path d="M 905 130 L 905 116 L 918 116 M 905 130 L 910 122 L 914 126 L 918 118" />
          <line x1="930" y1="115" x2="930" y2="135" stroke="#444" stroke-width="1" />
          <path d="M 945 115 L 953 115 L 955 117 L 955 132 L 945 132 Z" />
          <rect x="948" y="115" width="4" height="4" />
        </g>

        <!-- Plot Title -->
        <text x="955" y="195" fill="#ffffff" font-family="'Segoe UI', Roboto, sans-serif" font-size="16" text-anchor="middle">State Space: altitude vs velocity</text>

        <!-- Plot Grid -->
        <g stroke="#333333" stroke-width="1" stroke-dasharray="2, 2">
          <!-- Horizontal -->
          <line x1="835" y1="210" x2="1135" y2="210" />
          <line x1="835" y1="260" x2="1135" y2="260" />
          <line x1="835" y1="310" x2="1135" y2="310" />
          <line x1="835" y1="360" x2="1135" y2="360" />
          <!-- Vertical -->
          <line x1="835" y1="210" x2="835" y2="410" />
          <line x1="895" y1="210" x2="895" y2="410" />
          <line x1="955" y1="210" x2="955" y2="410" stroke="#555" stroke-dasharray="none" />
          <line x1="1015" y1="210" x2="1015" y2="410" />
          <line x1="1075" y1="210" x2="1075" y2="410" />
        </g>
        <!-- Main Axes Lines -->
        <line x1="800" y1="410" x2="1150" y2="410" stroke="#555555" stroke-width="1" />
        
        <!-- Phase Portrait Spiral Path -->
        <path d="M 955 410
                 C 1075 410, 1165 370, 1165 285
                 C 1165 180, 805 180, 805 285
                 C 805 350, 1075 350, 1075 285
                 C 1075 235, 865 235, 865 285
                 C 865 310, 1015 310, 1015 285
                 C 1015 270, 955 270, 955 285" 
              fill="none" stroke="url(#spiral)" stroke-width="2.5" stroke-linecap="round" />

        <!-- Start / End Dots -->
        <circle cx="955" cy="410" r="5" fill="#10B981" stroke="#ffffff" stroke-width="2" />
        <circle cx="955" cy="285" r="5" fill="#EF4444" stroke="#ffffff" stroke-width="2" />
        
        <text x="955" y="455" fill="#A855F7" font-family="'Segoe UI', Roboto, sans-serif" font-size="14" font-weight="bold" text-anchor="middle">velocity</text>
        <text x="780" y="310" fill="#3B82F6" font-family="'Segoe UI', Roboto, sans-serif" font-size="14" font-weight="bold" text-anchor="middle" transform="rotate(-90 780 310)">altitude</text>

        <!-- Terminal Area (Bottom) -->
        <rect x="270" y="475" width="930" height="200" fill="#1e1e1e" />
        
        <!-- Tabs Header -->
        <rect x="270" y="475" width="930" height="30" fill="#1e1e1e" />
        <text x="290" y="495" fill="#ffffff" font-family="'Segoe UI', Roboto, sans-serif" font-size="13" font-weight="bold">Terminal</text>
        <rect x="280" y="503" width="70" height="2" fill="#007acc" />
        
        <!-- Output Logs -->
        <g font-family="'Consolas', 'Courier New', monospace" font-size="13" fill="#cccccc">
          <text x="280" y="530">ENV [drone-sim] (Step 298) -> error = 0.258796053106195</text>
          <text x="280" y="546">ENV [drone-sim] (Step 299) -> accel = -0.0489777918938525</text>
          <text x="280" y="562">ENV [drone-sim] (Step 299) -> velocity = -0.247905111889424</text>
          <text x="280" y="578">ENV [drone-sim] (Step 299) -> altitude = 49.6915995299812</text>
          <text x="280" y="594">ENV [drone-sim] (Step 299) -> error = 0.283602667963251</text>
        </g>

        <!-- Status Bar (Bottom) -->
        <rect x="0" y="675" width="1200" height="25" fill="#007acc" />
        <text x="1190" y="692" fill="#ffffff" font-family="'Segoe UI', Roboto, sans-serif" font-size="12" font-weight="bold" text-anchor="end">Vsc.STAR_FULL PHASE: FINISH | Facts: 1243 | Rules: 34</text>

        <!-- Structural Grid Lines & Dividers -->
        <line x1="270" y1="50" x2="270" y2="675" stroke="#333333" stroke-width="1" />
        <line x1="710" y1="50" x2="710" y2="475" stroke="#333333" stroke-width="1" />
        <line x1="270" y1="475" x2="1200" y2="475" stroke="#333333" stroke-width="1" />
      </g>
    </g>
  </g>

  <!-- ============================================== -->
  <!-- LEFT SIDE: Logo & Typography                   -->
  <!-- ============================================== -->
  <g transform="translate(20, -10) scale(0.8)">
    <!-- Blue Curve -->
    <path d="M 100 300 C 160 300, 190 180, 250 180 C 310 180, 340 300, 400 300" fill="url(#blueFill)" />
    <path d="M 100 300 C 160 300, 190 180, 250 180 C 310 180, 340 300, 400 300" fill="none" stroke="#3B82F6" stroke-width="12" stroke-linecap="round" filter="url(#glow)"/>
    <circle cx="250" cy="180" r="8" fill="#FFFFFF" />

    <!-- Purple Curve (Tallest) -->
    <path d="M 200 300 C 260 300, 290 100, 350 100 C 410 100, 440 300, 500 300" fill="url(#purpleFill)" />
    <path d="M 200 300 C 260 300, 290 100, 350 100 C 410 100, 440 300, 500 300" fill="none" stroke="#A855F7" stroke-width="12" stroke-linecap="round" filter="url(#glow)"/>
    <circle cx="350" cy="100" r="8" fill="#FFFFFF" />

    <!-- Orange Curve -->
    <path d="M 300 300 C 360 300, 390 180, 450 180 C 510 180, 540 300, 600 300" fill="url(#orangeFill)" />
    <path d="M 300 300 C 360 300, 390 180, 450 180 C 510 180, 540 300, 600 300" fill="none" stroke="#F97316" stroke-width="12" stroke-linecap="round" filter="url(#glow)"/>
    <circle cx="450" cy="180" r="8" fill="#FFFFFF" />
  </g>

  <!-- Typography underneath curves -->
  <g transform="translate(80, 280)">
    <text x="0" y="0" fill="#FFFFFF" font-family="'Segoe UI', Roboto, sans-serif" font-weight="800" font-size="44" letter-spacing="-1">CLIPSiffy Studio</text>
    <text x="2" y="32" fill="#3B82F6" font-family="'Segoe UI', Roboto, sans-serif" font-weight="600" font-size="20">Fuzzy Logic Environment</text>
  </g>

  <!-- Banner Outline Border -->
  <rect width="1198" height="398" x="1" y="1" rx="16" fill="none" stroke="#334155" stroke-width="2" />
</svg>